<svg width="105" height="107" viewBox="0 0 105 107" fill="none" xmlns="http://www.w3.org/2000/svg">
<path fill-rule="evenodd" clip-rule="evenodd" d="M0 53.3382H40.1699V57.928H20.9697C18.3078 61.1004 18.3078 65.7264 20.9697 68.8987H40.1699V79.5648C40.1699 80.7429 41.1246 81.6984 42.3027 81.6985H50.8359C52.0141 81.6985 52.9697 80.743 52.9697 79.5648C52.97 78.3869 53.9247 77.4322 55.1025 77.4319H63.6367C73.292 77.4318 81.7441 70.9467 84.2432 61.6204L104.85 67.1419C97.9224 92.994 72.9072 109.708 46.3721 106.215C19.8368 102.722 0.000202629 80.1023 0 53.3382ZM86.333 73.1468C86.333 70.4838 88.4845 68.3333 91.1465 68.3333C93.8083 68.3336 95.959 70.4839 95.959 73.1468C95.9589 75.8076 93.8082 77.959 91.1465 77.9593C88.4845 77.9593 86.3331 75.8087 86.333 73.1468Z" fill="url(#paint0_linear_1_874)"/>
<path fill-rule="evenodd" clip-rule="evenodd" d="M46.3721 0.46029C72.9073 -3.03292 97.9225 13.6823 104.85 39.5345L84.2432 45.2767C81.7442 35.9502 73.2921 29.4654 63.6367 29.4652H55.1025C53.998 29.465 53.0895 28.6249 52.9805 27.5492L52.959 27.1136C52.8499 26.0377 51.9406 25.1976 50.8359 25.1976H42.3027C41.1246 25.1977 40.1699 26.1533 40.1699 27.3314V37.9984H20.9697C18.308 41.1707 18.3079 45.7958 20.9697 48.9681H40.1699V53.3382H0C0 26.5739 19.8367 3.95374 46.3721 0.46029ZM86.333 33.1468C86.333 30.4838 88.4845 28.3333 91.1465 28.3333C93.8083 28.3336 95.959 30.484 95.959 33.1468C95.9589 35.8076 93.8082 37.9591 91.1465 37.9593C88.4845 37.9593 86.3331 35.8088 86.333 33.1468Z" fill="url(#paint1_linear_1_874)"/>
<defs>
<linearGradient id="paint0_linear_1_874" x1="19.7045" y1="64.3479" x2="51.2501" y2="123.917" gradientUnits="userSpaceOnUse">
<stop stop-color="#FFE052"/>
<stop offset="1" stop-color="#FFC331"/>
</linearGradient>
<linearGradient id="paint1_linear_1_874" x1="13.2063" y1="6.38678" x2="41.8292" y2="62.9916" gradientUnits="userSpaceOnUse">
<stop stop-color="#387EB8"/>
<stop offset="1" stop-color="#366994"/>
</linearGradient>
</defs>
</svg>
